<svg width="90" height="90" xmlns="http://www.w3.org/2000/svg">
 <g id="Layer_1">
  <title>Layer 1</title>
  <rect stroke="#d04b9b" id="svg_1" height="91" width="90" y="0" x="-1" fill="#d04b9b"/>
  <g>
   <g fill-rule="evenodd" fill="none">
    <path d="m44.8485,34.8435l0.512,0l0.497,-0.428l0.497,0.428l1.283,0l0.498,-0.428l0.499,0.429l0.517,0l-1.024,7.302l-2.255,0l-1.024,-7.303zm2.15,-12.602c4.742,0 8.599,3.857 8.599,8.596c-0.002,0.042 -0.139,4.286 -3.643,8.8c-0.463,0.614 -0.78,1.457 -0.948,2.51l-0.896,0l1.324,-9.437l-1.557,-0.217l-0.102,-0.12l-0.105,0.09l-0.18,-0.025l-0.03,0.206l-0.185,0.16l-0.5,-0.43l-1.282,0l-0.498,0.428l-0.495,-0.428l-1.284,0l-0.496,0.428l-0.18,-0.156l-0.03,-0.208l-0.182,0.026l-0.103,-0.09l-0.101,0.118l-1.56,0.218l1.324,9.436l-0.907,0c-0.164,-1.053 -0.48,-1.897 -0.948,-2.522c-3.497,-4.5 -3.632,-8.745 -3.632,-8.784c0,-4.742 3.857,-8.6 8.598,-8.6l-0.001,0.001zm-18.874,8.686l8.316,0c0.013,0.236 0.066,0.944 0.283,1.965c0.405,1.898 1.383,4.88 3.75,7.925c0.346,0.461 0.577,1.305 0.65,2.378l0.06,0.916l0.285,0l0,0.113l1.73,0l0,0.947l-1.73,0l0,1.963l11.064,0l0,-1.963l-7.369,0l0,-0.947l7.37,0l0,-0.113l0.261,0l0.067,-0.91c0.079,-1.074 0.315,-1.92 0.655,-2.373c2.372,-3.054 3.354,-6.036 3.758,-7.936c0.22,-1.021 0.272,-1.73 0.284,-1.965l8.317,0c0.222,0 0.403,0.181 0.403,0.403l0,24.586l-38.557,0l0,-24.586c0,-0.222 0.18,-0.403 0.402,-0.403l0.001,0zm44.19,27.94c-0.615,0.394 -1.563,0.892 -2.172,0.892l-46.286,0c-0.594,0 -1.521,-0.474 -2.171,-0.892l0,-0.987l50.629,0l0,0.987zm-4.072,-27.537a2.37,2.37 0 0 0 -2.367,-2.366l-8.49,0c-0.89,-4.932 -5.202,-8.687 -10.385,-8.687s-9.498,3.755 -10.387,8.687l-8.49,0a2.368,2.368 0 0 0 -2.365,2.366l0,24.586l-6.037,0l0,3.96l0.394,0.294c0.213,0.158 2.125,1.552 3.741,1.552l46.285,0c1.616,0 3.53,-1.394 3.742,-1.552l0.395,-0.295l0,-3.96l-6.037,0l0,-24.584l0.001,-0.001z" fill="#2E2D42"/>
    <path d="m43.3825,50.0465l7.235,0l0,-1.964l-7.235,0l0,1.964zm-13.697,3.994l34.626,0l0,-21.148l-7.036,0c-0.407,1.9 -1.39,4.881 -3.76,7.936c-0.34,0.452 -0.577,1.299 -0.655,2.373l-0.066,0.91l-0.263,0l0,0.112l-7.368,0l0,0.948l7.368,0l0,1.964l-11.063,0l0,-1.964l1.73,0l0,-0.948l-1.73,0l0,-0.112l-0.285,0l-0.062,-0.917c-0.072,-1.073 -0.302,-1.916 -0.65,-2.378c-2.366,-3.045 -3.344,-6.026 -3.749,-7.924l-7.037,0l0,21.148z" fill="#FEFEFE"/>
    <path d="m43.3815,50.0465l7.235,0l0,-1.964l-7.235,0l0,1.964z" fill="#2E2D42"/>
   </g>
  </g>
 </g>

</svg>