<svg width="90" height="90" xmlns="http://www.w3.org/2000/svg">
 <g id="Layer_1">
  <title>Layer 1</title>
  <rect stroke="#f47e3d" id="svg_1" height="87" width="88.99999" y="2" x="1" fill="#f47e3d"/>
  <g>
   <g fill-rule="evenodd" fill="none">
    <path d="m55.9455,61.154l3.686,1.562l1.883,-3.3l-7.917,-22.82" stroke-width="2" stroke="#2E2E41"/>
    <path d="m39.2435,17.55c-1.763,1.309 0.477,5.789 1.88,8.212a28.608,28.608 0 0 1 8.467,-0.078c1.405,-2.44 3.58,-6.84 1.832,-8.134c0,0 -5.158,-3.573 -12.179,0" fill="#FFF"/>
    <path d="m39.2435,17.55c-1.763,1.309 0.477,5.789 1.88,8.212a28.608,28.608 0 0 1 8.467,-0.078c1.405,-2.44 3.58,-6.84 1.832,-8.134c0,0 -5.158,-3.573 -12.179,0z" stroke-width="2" stroke="#2E2E41"/>
    <path d="m42.0385,29.881l-3.553,37.135l7.065,7.022l6.63,-7.022l-3.56,-37.206" fill="#FFF"/>
    <path d="m42.0385,29.881l-3.553,37.135l7.065,7.022l6.63,-7.022l-3.56,-37.206" stroke-width="2" stroke="#2E2E41"/>
   </g>
  </g>
 </g>

</svg>