<svg width="90" height="90" xmlns="http://www.w3.org/2000/svg">
 <g id="Layer_1">
  <title>Layer 1</title>
  <rect fill="#63c9e0" x="-3" y="-3" width="93" height="92" id="svg_1" stroke="#63c9e0"/>
  <g id="svg_2" stroke="null">
   <g id="svg_3" fill="none" fill-rule="evenodd" stroke="null">
    <path id="svg_4" fill="#2E2D42" d="m49.6944,67.05056c0.04309,0.2255 0.09108,0.41178 0.13906,0.57846l-8.69629,0c0.05092,-0.16667 0.09793,-0.35296 0.14396,-0.57846c0.14298,-0.72748 0.12927,-1.77459 0.11752,-2.78444c-0.00392,-0.20197 -0.00588,-0.39218 -0.00686,-0.57846l8.19195,0l-0.00588,0.60885c-0.01469,0.99514 -0.02938,2.02558 0.11752,2.75503l-0.00098,-0.00098zm17.33872,-5.28848l-42.75286,0c-0.1753,0 -0.52197,-0.35982 -0.52197,-0.5912l0,-2.84327l43.48636,0l0,2.907c0,0.29805 -0.15081,0.52748 -0.21153,0.52748l0,-0.00001zm2.12217,-5.38751l0,-25.59825a2.20835,2.21089 0 0 0 -2.20737,-2.20893l-6.40274,0l0,-1.64223l-1.92435,0l0,26.79831l1.92435,0l0,-23.22755l6.40274,0c0.15669,0 0.28204,0.1255 0.28204,0.28139l0,25.62178l-43.47265,0l0,-25.62178c0,-0.15589 0.12437,-0.28139 0.28106,-0.28139l6.47521,0l0,23.22755l1.92533,0l0,-32.35641l20.63411,0l0,-1.92656l-22.5614,0l0,9.12788l-6.47423,0a2.20933,2.21187 0 0 0 -2.20639,2.20893l0,27.5503l0.00294,0l0,2.84327c0,1.29418 1.18986,2.51776 2.44632,2.51776l15.18718,0l0.00588,0.60297c0.00588,0.38139 0.00979,0.8069 0.0049,1.20594c-0.00783,0.46375 -0.02938,0.89416 -0.0852,1.17947c-0.05974,0.29511 -0.09793,0.42453 -0.11948,0.47943c-0.04505,0.02843 -0.09597,0.05196 -0.15571,0.08726l-0.06561,0.0353a16.02449,16.0429 0 0 1 -0.72959,0.351l-1.21729,0l0,1.92754l15.10589,0a0.01959,0.01961 0 0 0 0.00686,0.00196l0.00098,-0.00196l1.68442,0l0,-1.92852l-1.28584,0a17.02437,17.04393 0 0 1 -0.76386,-0.37061c-0.05876,-0.03333 -0.10968,-0.05883 -0.15375,-0.08628a4.31583,4.32079 0 0 1 -0.11654,-0.4961c-0.05582,-0.27648 -0.07834,-0.68042 -0.0852,-1.12064c-0.00686,-0.40786 0,-0.84514 0.00392,-1.23535c0.00294,-0.21864 0.00588,-0.42943 0.00686,-0.63238l15.52406,0c1.33774,0 2.13588,-1.24908 2.13588,-2.45404l0,-4.86003l-0.01371,0l0,0.00098l-0.00002,-0.00001z" stroke="null"/>
    <path id="svg_5" fill="#FEFEFE" d="m26.34367,53.72445l4.16795,0l0,-20.58135l-4.16893,0l0.00098,20.58135zm34.20052,0l4.05044,0l0,-20.58135l-4.05044,0l0,20.58135zm-7.47411,-26.79929l7.41829,0l-7.41829,-7.4278l0,1.86969l0,5.5581l0,0.00001z" stroke="null"/>
    <path id="svg_6" fill="#2E2D42" d="m54.26093,30.49886l0,-1.92754l-13.49688,0l0,1.92852l13.49688,-0.00098zm-13.49688,3.01289l13.49688,0l0,-1.92656l-13.49688,0l0,1.92656zm-5.01506,-3.15603l-1.04297,1.6187l2.10552,1.36085l2.63043,-3.30211l-0.62774,-0.50198l-0.87648,-0.70003l-0.55821,0.70003l-0.98911,1.23927l-0.64145,-0.41473l0.00001,0zm5.01506,9.12984l13.49688,0l0,-1.92656l-13.49688,0l0,1.92656zm0,3.01485l13.49688,0l0,-1.92754l-13.49688,0l0,1.92754zm-1.32207,-3.48055l-1.50618,-1.20104l-1.54438,1.94127l-0.64341,-0.41669l-1.04493,1.61968l2.10748,1.35889l2.63141,-3.30211l0.00001,0zm1.32207,9.45436l13.49688,0l0,-1.92656l-13.49688,0l0,1.92656zm0,3.0119l13.49688,0l0,-1.92656l-13.49688,0l0,1.92656zm-1.32207,-3.47761l-1.50618,-1.20202l-1.54438,1.94029l-0.64341,-0.41571l-1.04493,1.61968l2.10748,1.35889l2.63141,-3.30113l0.00001,0z" stroke="null"/>
   </g>
  </g>
 </g>

</svg>